<?xml version="1.0" encoding="UTF-8" standalone="no"?>
<svg width="256px" height="256px" viewBox="0 0 256 256" version="1.1" xmlns="http://www.w3.org/2000/svg" xmlns:xlink="http://www.w3.org/1999/xlink">
    <!-- Generator: Sketch 50.2 (55047) - http://www.bohemiancoding.com/sketch -->
    <title>logotype-avatar</title>
    <desc>Created with Sketch.</desc>
    <defs></defs>
    <g id="logotype-avatar" stroke="none" stroke-width="1" fill="none" fill-rule="evenodd">
        <circle id="Oval-2" fill="#FAD24E" cx="128" cy="128" r="128"></circle>
        <g id="Group" transform="translate(48.000000, 48.000000)">
            <path d="M32.181868,127.322751 L32.181868,159.479012 L0.0180844907,127.322751 L0,127.322751 L0,63.6613757 C0,28.5021687 28.5021687,0 63.6613757,0 C98.8205826,0 127.322751,28.5021687 127.322751,63.6613757 C127.322751,98.8205826 98.8205826,127.322751 63.6613757,127.322751 L32.181868,127.322751 Z" id="Combined-Shape" fill="#44CDAC"></path>
            <path d="M32,95.6613757 C32,60.5021687 60.5021687,32 95.6613757,32 C130.820583,32 159.322751,60.5021687 159.322751,95.6613757 C159.322751,130.820583 130.820583,159.322751 95.6613757,159.322751 L32,159.322751 L32,95.6613757 Z" id="logotype-for-admin-copy" fill="#EC4568"></path>
            <path d="M32.0000177,118.975305 L32.0000177,95.6613757 C32.0000177,60.5021687 60.5021865,32 95.6613934,32 C105.002721,32 113.874133,34.0119491 121.865931,37.6261498 C125.480131,45.6179422 127.492081,54.4893569 127.492081,63.8306878 C127.492081,98.9898948 98.9899125,127.492063 63.8307056,127.492063 L32.0000177,127.492063 L32.0000177,118.975305 Z" id="Combined-Shape" fill="#53146C"></path>
        </g>
    </g>
</svg>